<svg width="1440" height="332" viewBox="0 0 1440 332" fill="none" xmlns="http://www.w3.org/2000/svg">
<path fill-rule="evenodd" clip-rule="evenodd" d="M498.073 268.04H473.658L433.71 129.184L393.763 268.04H369.348L421.503 86.7514L423.911 78.3818H443.51L445.918 86.7514L498.073 268.04Z" fill="white"/>
<path fill-rule="evenodd" clip-rule="evenodd" d="M397.648 223.54V204.497H467.993V223.54H397.648Z" fill="white"/>
<path fill-rule="evenodd" clip-rule="evenodd" d="M510.612 268.04H534.969V151.436H510.612V268.04Z" fill="white"/>
<path fill-rule="evenodd" clip-rule="evenodd" d="M575.127 268.04H599.484V167.381H575.127V268.04Z" fill="white"/>
<path fill-rule="evenodd" clip-rule="evenodd" d="M599.483 160.305V198.862C599.483 204.191 595.097 208.577 589.768 208.577H575.127V166.041C575.127 148.779 534.969 153.304 534.969 163.063V208.577H520.328C514.987 208.577 510.612 204.206 510.612 198.862V149.289C510.612 135.607 599.483 125.006 599.483 160.305Z" fill="white"/>
<path fill-rule="evenodd" clip-rule="evenodd" d="M622.153 268.04H646.509V78.3818H631.473C626.346 78.3818 622.153 82.5732 622.153 87.7018V268.04Z" fill="white"/>
<path fill-rule="evenodd" clip-rule="evenodd" d="M798.51 265.042C805.008 263.453 813.626 258.257 813.626 251.706V197.432V166.664V155.442C813.626 125.658 730.63 136.11 730.63 145.393V162.11C752.079 157.578 754.688 155.65 775.667 155.65C783.149 155.65 789.27 161.632 789.27 168.944V192.631C781.857 188.932 773.502 188.166 765.323 188.231C717.993 188.611 721.127 251.782 748.695 263.862C762.95 270.109 784.972 268.353 798.51 265.042ZM789.27 208.826V242.821C789.27 247.94 784.985 252.128 779.747 252.128H771.749C755.438 252.128 751.979 236.897 753.002 223.248C754.967 197.036 789.27 199.088 789.27 208.826Z" fill="white"/>
<path fill-rule="evenodd" clip-rule="evenodd" d="M686.668 268.04H711.024V167.381H686.668V268.04Z" fill="white"/>
<path fill-rule="evenodd" clip-rule="evenodd" d="M711.024 158.102V198.862C711.024 204.181 706.628 208.577 701.309 208.577H686.668V166.041C686.668 148.779 646.509 153.304 646.509 163.063V208.577H631.868C626.546 208.577 622.153 204.205 622.153 198.862V165.446C622.153 148.281 709.879 112.9 711.024 158.102Z" fill="white"/>
<path fill-rule="evenodd" clip-rule="evenodd" d="M837.072 268.04H861.428V151.436H837.072V268.04Z" fill="white"/>
<path fill-rule="evenodd" clip-rule="evenodd" d="M901.587 268.04H925.943V167.381H901.587V268.04Z" fill="white"/>
<path fill-rule="evenodd" clip-rule="evenodd" d="M925.943 160.305V198.862C925.943 204.191 921.557 208.577 916.228 208.577H901.587V166.041C901.587 148.779 861.428 153.304 861.428 163.063V208.577H846.788C841.447 208.577 837.072 204.206 837.072 198.862V149.289C837.072 135.607 925.943 125.006 925.943 160.305Z" fill="white"/>
<path fill-rule="evenodd" clip-rule="evenodd" d="M1152.09 136.428H1127.73V253.032H1152.09V136.428Z" fill="white"/>
<path fill-rule="evenodd" clip-rule="evenodd" d="M1087.57 136.428H1063.22V237.087H1087.57V136.428Z" fill="white"/>
<path fill-rule="evenodd" clip-rule="evenodd" d="M1063.22 244.162V205.605C1063.22 200.276 1067.6 195.89 1072.93 195.89H1087.57V241.364C1087.57 258.626 1127.73 254.098 1127.73 244.342V195.89H1142.37C1147.71 195.89 1152.09 200.262 1152.09 205.605V255.179C1152.09 268.861 1063.22 279.462 1063.22 244.162Z" fill="white"/>
<path fill-rule="evenodd" clip-rule="evenodd" d="M1284.01 268.04H1308.37V151.436H1284.01V268.04Z" fill="white"/>
<path fill-rule="evenodd" clip-rule="evenodd" d="M1335.75 155.805C1323.91 152.072 1308.37 156.317 1308.37 163.063V208.577H1293.73C1288.39 208.577 1284.01 204.206 1284.01 198.862V150.757C1284.01 144.195 1304.45 136.874 1325.73 136.458C1339.23 136.194 1345.55 136.504 1345.55 148.925V151.623C1345.55 162.306 1342.95 158.072 1335.75 155.805Z" fill="white"/>
<path fill-rule="evenodd" clip-rule="evenodd" d="M1424.22 265.042C1430.72 263.453 1439.33 258.257 1439.33 251.706V197.432V166.664V155.442C1439.33 125.658 1356.34 136.11 1356.34 145.393V162.11C1377.79 157.578 1380.4 155.65 1401.38 155.65C1408.86 155.65 1414.98 161.632 1414.98 168.944V192.631C1407.57 188.932 1399.21 188.166 1391.03 188.231C1343.7 188.611 1346.84 251.782 1374.4 263.862C1388.66 270.109 1410.68 268.353 1424.22 265.042ZM1414.98 208.826V242.821C1414.98 247.94 1410.69 252.128 1405.46 252.128H1397.46C1381.15 252.128 1377.69 236.897 1378.71 223.248C1380.68 197.036 1414.98 199.088 1414.98 208.826Z" fill="white"/>
<path fill-rule="evenodd" clip-rule="evenodd" d="M1198.06 211.434C1198.06 244.756 1221.21 257.049 1253.09 244.845C1263.57 240.834 1260.97 236.078 1261.99 250.532C1263.69 274.771 1164.5 286.873 1173.83 196.342C1182.13 115.766 1263.3 123.485 1264.43 175.617C1264.66 186.044 1264.65 197.793 1262.9 203.937C1260.83 211.227 1254.91 211.434 1243.74 211.434H1198.06ZM1238.93 197.582C1236.6 199.371 1230.68 198.633 1221.71 198.633H1198.05C1198.07 187.131 1200.19 163.467 1213.09 156.09C1228.33 147.381 1238.8 158.063 1241.22 171.437C1242.01 175.783 1242.53 194.823 1238.93 197.582Z" fill="white"/>
<path fill-rule="evenodd" clip-rule="evenodd" d="M1042.88 142.511C1029.76 136.516 964.997 126.156 949.636 166.007C941.543 187.007 941.87 238.306 961.83 256.286C969.959 263.607 981.395 268.04 993.52 268.04C1005.57 267.592 1013.86 265.899 1018.39 262.959C1018.2 264.831 1017.99 266.524 1017.75 268.04C1012.77 300.923 992.573 315.551 957.172 311.923C955.355 326.506 960.731 332.79 973.301 330.773C1012.68 327.596 1042.88 302.279 1042.88 261.011V142.511ZM1017.61 156.664C999.534 156.664 984.11 152.142 974.963 171.729C965.583 191.816 966.603 226.632 978.885 242.12C987.823 253.393 1017.61 254.438 1017.61 236.919V156.664Z" fill="white"/>
<path fill-rule="evenodd" clip-rule="evenodd" d="M324.541 253.869C329.373 263.583 356.143 311.486 358.618 320.252C359.86 324.649 353.822 330.951 346.72 331.149H179.063H11.8914C-8.90304 331.149 2.07245 305.721 11.0356 303.791C58.0539 288.397 107.248 275.995 157.056 266.553C208.917 256.722 260.359 250.654 311.912 247.167L311.911 247.155C318.251 246.727 322.578 249.921 324.541 253.869Z" fill="white"/>
<path fill-rule="evenodd" clip-rule="evenodd" d="M113.59 111.205C132.179 74.9898 151.522 39.6032 170.937 3.76153L170.921 3.73709C172.86 0.256333 179.03 -1.02125 182.575 0.882859C184.044 1.67199 185.127 2.88468 185.754 4.28189L217.559 56.4395L217.581 56.4276C219.521 59.9081 218.219 64.2745 214.676 66.1786C214.228 66.4188 213.766 66.6074 213.298 66.7488C175.49 80.4181 149.051 89.0745 113.59 111.205Z" fill="white"/>
<path fill-rule="evenodd" clip-rule="evenodd" d="M148.798 190.048C138.876 209.306 129.368 229.524 117.262 248.874C114.962 252.55 109.716 260.694 104.866 261.575C76.4012 268.451 48.4186 276.333 20.0278 283.081C21.6434 275.65 39.8278 242.851 44.8539 235.662C49.521 228.986 52.5987 226.525 57.4582 224.273C82.6413 212.602 120.94 196.442 148.798 190.048ZM274.026 168.451C286.014 185.253 297.072 203.451 307.44 222.688L307.464 222.676C309.403 226.157 308.101 230.523 304.557 232.427C303.502 232.994 302.367 233.278 301.242 233.307C291.438 234.061 279.198 234.874 270.277 235.744C261.34 236.615 250.223 236.487 240.377 237.656L240.378 237.662C237.096 238.052 232.908 236.242 231.647 233.414L203.341 184.217L203.317 184.229C201.379 180.749 201.53 176.957 205.074 175.053C205.837 174.643 206.64 174.381 207.453 174.256C216.557 172.218 230.084 170.343 238.833 168.633C247.727 166.894 256.819 165.824 266.106 164.274L266.104 164.26C269.48 163.697 272.709 165.506 274.026 168.451Z" fill="white"/>
<path fill-rule="evenodd" clip-rule="evenodd" d="M231.45 85.2778L262.936 140.752L262.959 140.74C265.261 145.475 264.212 148.387 257.199 149.621C191.687 158.507 114.849 179.141 61.0869 204.613C65.5717 193.526 91.8664 145.101 104.019 135.745C128.111 117.199 205.738 84.1118 222.273 81.4478L222.269 81.4275C225.909 80.1331 229.912 81.8505 231.45 85.2778Z" fill="white"/>
</svg>
