<svg width="328" height="63" viewBox="0 0 328 63" fill="none" xmlns="http://www.w3.org/2000/svg">
<circle cx="26.5" cy="31.5" r="26.5" fill="#0047FF"/>
<path d="M71.408 48V14.4H76.496V48H71.408ZM83.1223 48V24.192H87.6343L88.0183 28.368C88.7543 26.896 89.8263 25.744 91.2343 24.912C92.6743 24.048 94.3223 23.616 96.1783 23.616C99.0583 23.616 101.314 24.512 102.946 26.304C104.61 28.096 105.442 30.768 105.442 34.32V48H100.402V34.848C100.402 30.24 98.5143 27.936 94.7383 27.936C92.8503 27.936 91.2823 28.608 90.0343 29.952C88.8183 31.296 88.2103 33.216 88.2103 35.712V48H83.1223ZM112.635 48V28.464H109.227V24.192H112.635V20.736C112.635 18.144 113.275 16.288 114.555 15.168C115.867 14.016 117.707 13.44 120.075 13.44H122.571V17.76H120.843C119.723 17.76 118.923 18 118.443 18.48C117.963 18.928 117.723 19.696 117.723 20.784V24.192H123.195V28.464H117.723V48H112.635ZM138.227 48.576C135.955 48.576 133.907 48.064 132.083 47.04C130.291 45.984 128.867 44.528 127.811 42.672C126.755 40.784 126.227 38.592 126.227 36.096C126.227 33.6 126.755 31.424 127.811 29.568C128.899 27.68 130.355 26.224 132.179 25.2C134.003 24.144 136.035 23.616 138.275 23.616C140.547 23.616 142.579 24.144 144.371 25.2C146.195 26.224 147.635 27.68 148.691 29.568C149.779 31.424 150.323 33.6 150.323 36.096C150.323 38.592 149.779 40.784 148.691 42.672C147.635 44.528 146.195 45.984 144.371 47.04C142.547 48.064 140.499 48.576 138.227 48.576ZM138.227 44.208C139.443 44.208 140.563 43.904 141.587 43.296C142.643 42.688 143.491 41.792 144.131 40.608C144.771 39.392 145.091 37.888 145.091 36.096C145.091 34.304 144.771 32.816 144.131 31.632C143.523 30.416 142.691 29.504 141.635 28.896C140.611 28.288 139.491 27.984 138.275 27.984C137.059 27.984 135.923 28.288 134.867 28.896C133.843 29.504 133.011 30.416 132.371 31.632C131.731 32.816 131.411 34.304 131.411 36.096C131.411 37.888 131.731 39.392 132.371 40.608C133.011 41.792 133.843 42.688 134.867 43.296C135.891 43.904 137.011 44.208 138.227 44.208ZM155.825 48V24.192H160.385L160.817 28.704C161.649 27.136 162.801 25.904 164.273 25.008C165.777 24.08 167.585 23.616 169.697 23.616V28.944H168.305C166.897 28.944 165.633 29.184 164.513 29.664C163.425 30.112 162.545 30.896 161.873 32.016C161.233 33.104 160.913 34.624 160.913 36.576V48H155.825ZM174.06 48V24.192H178.572L179.004 27.552C179.772 26.336 180.78 25.376 182.028 24.672C183.308 23.968 184.78 23.616 186.444 23.616C190.22 23.616 192.844 25.104 194.316 28.08C195.18 26.704 196.332 25.616 197.772 24.816C199.244 24.016 200.828 23.616 202.524 23.616C205.5 23.616 207.836 24.512 209.532 26.304C211.228 28.096 212.076 30.768 212.076 34.32V48H206.988V34.848C206.988 30.24 205.228 27.936 201.708 27.936C199.916 27.936 198.444 28.608 197.292 29.952C196.172 31.296 195.612 33.216 195.612 35.712V48H190.524V34.848C190.524 30.24 188.748 27.936 185.196 27.936C183.436 27.936 181.98 28.608 180.828 29.952C179.708 31.296 179.148 33.216 179.148 35.712V48H174.06ZM226.093 48.576C224.077 48.576 222.413 48.24 221.101 47.568C219.789 46.896 218.813 46.016 218.173 44.928C217.533 43.808 217.213 42.592 217.213 41.28C217.213 38.976 218.109 37.152 219.901 35.808C221.693 34.464 224.253 33.792 227.581 33.792H233.821V33.36C233.821 31.504 233.309 30.112 232.285 29.184C231.293 28.256 229.997 27.792 228.397 27.792C226.989 27.792 225.757 28.144 224.701 28.848C223.677 29.52 223.053 30.528 222.829 31.872H217.741C217.901 30.144 218.477 28.672 219.469 27.456C220.493 26.208 221.773 25.264 223.309 24.624C224.877 23.952 226.589 23.616 228.445 23.616C231.773 23.616 234.349 24.496 236.173 26.256C237.997 27.984 238.909 30.352 238.909 33.36V48H234.493L234.061 43.92C233.389 45.232 232.413 46.336 231.133 47.232C229.853 48.128 228.173 48.576 226.093 48.576ZM227.101 44.448C228.477 44.448 229.629 44.128 230.557 43.488C231.517 42.816 232.253 41.936 232.765 40.848C233.309 39.76 233.645 38.56 233.773 37.248H228.109C226.093 37.248 224.653 37.6 223.789 38.304C222.957 39.008 222.541 39.888 222.541 40.944C222.541 42.032 222.941 42.896 223.741 43.536C224.573 44.144 225.693 44.448 227.101 44.448ZM226.909 22.224V18.576L237.373 12.624V16.848L226.909 22.224ZM254.356 48C252.02 48 250.164 47.44 248.788 46.32C247.412 45.168 246.724 43.136 246.724 40.224V28.464H242.644V24.192H246.724L247.348 18.144H251.812V24.192H258.532V28.464H251.812V40.224C251.812 41.536 252.084 42.448 252.628 42.96C253.204 43.44 254.18 43.68 255.556 43.68H258.292V48H254.356ZM266.659 19.68C265.699 19.68 264.899 19.392 264.259 18.816C263.651 18.208 263.347 17.456 263.347 16.56C263.347 15.664 263.651 14.928 264.259 14.352C264.899 13.744 265.699 13.44 266.659 13.44C267.619 13.44 268.403 13.744 269.011 14.352C269.651 14.928 269.971 15.664 269.971 16.56C269.971 17.456 269.651 18.208 269.011 18.816C268.403 19.392 267.619 19.68 266.659 19.68ZM264.115 48V24.192H269.203V48H264.115ZM287.199 48.576C284.863 48.576 282.767 48.048 280.911 46.992C279.087 45.936 277.647 44.48 276.591 42.624C275.567 40.736 275.055 38.56 275.055 36.096C275.055 33.632 275.567 31.472 276.591 29.616C277.647 27.728 279.087 26.256 280.911 25.2C282.767 24.144 284.863 23.616 287.199 23.616C290.143 23.616 292.607 24.384 294.591 25.92C296.607 27.456 297.903 29.536 298.479 32.16H293.151C292.831 30.848 292.127 29.824 291.039 29.088C289.951 28.352 288.671 27.984 287.199 27.984C285.951 27.984 284.799 28.304 283.743 28.944C282.687 29.552 281.839 30.464 281.199 31.68C280.559 32.864 280.239 34.336 280.239 36.096C280.239 37.856 280.559 39.344 281.199 40.56C281.839 41.744 282.687 42.656 283.743 43.296C284.799 43.936 285.951 44.256 287.199 44.256C288.671 44.256 289.951 43.888 291.039 43.152C292.127 42.416 292.831 41.376 293.151 40.032H298.479C297.935 42.592 296.655 44.656 294.639 46.224C292.623 47.792 290.143 48.576 287.199 48.576ZM312.061 48.576C310.045 48.576 308.381 48.24 307.069 47.568C305.757 46.896 304.781 46.016 304.141 44.928C303.501 43.808 303.181 42.592 303.181 41.28C303.181 38.976 304.077 37.152 305.869 35.808C307.661 34.464 310.221 33.792 313.549 33.792H319.789V33.36C319.789 31.504 319.277 30.112 318.253 29.184C317.261 28.256 315.965 27.792 314.365 27.792C312.957 27.792 311.725 28.144 310.669 28.848C309.645 29.52 309.021 30.528 308.797 31.872H303.709C303.869 30.144 304.445 28.672 305.437 27.456C306.461 26.208 307.741 25.264 309.277 24.624C310.845 23.952 312.557 23.616 314.413 23.616C317.741 23.616 320.317 24.496 322.141 26.256C323.965 27.984 324.877 30.352 324.877 33.36V48H320.461L320.029 43.92C319.357 45.232 318.381 46.336 317.101 47.232C315.821 48.128 314.141 48.576 312.061 48.576ZM313.069 44.448C314.445 44.448 315.597 44.128 316.525 43.488C317.485 42.816 318.221 41.936 318.733 40.848C319.277 39.76 319.613 38.56 319.741 37.248H314.077C312.061 37.248 310.621 37.6 309.757 38.304C308.925 39.008 308.509 39.888 308.509 40.944C308.509 42.032 308.909 42.896 309.709 43.536C310.541 44.144 311.661 44.448 313.069 44.448Z" fill="#4D4D4D"/>
</svg>
