<svg width="417" height="63" viewBox="0 0 417 63" fill="none" xmlns="http://www.w3.org/2000/svg">
<circle cx="26.5" cy="31.5" r="26.5" fill="#00DB3D"/>
<path d="M71.408 48V14.4H77.408L88.784 36.768L100.112 14.4H106.112V48H101.024V23.184L90.752 43.2H86.816L76.496 23.232V48H71.408ZM121.531 48.576C118.651 48.576 116.379 47.68 114.715 45.888C113.083 44.096 112.267 41.424 112.267 37.872V24.192H117.355V37.344C117.355 41.952 119.243 44.256 123.019 44.256C124.907 44.256 126.459 43.584 127.675 42.24C128.891 40.896 129.499 38.976 129.499 36.48V24.192H134.587V48H130.075L129.691 43.824C128.955 45.296 127.867 46.464 126.427 47.328C125.019 48.16 123.387 48.576 121.531 48.576ZM141.06 48V13.44H146.148V48H141.06ZM162.575 48C160.239 48 158.383 47.44 157.007 46.32C155.631 45.168 154.943 43.136 154.943 40.224V28.464H150.863V24.192H154.943L155.567 18.144H160.031V24.192H166.751V28.464H160.031V40.224C160.031 41.536 160.303 42.448 160.847 42.96C161.423 43.44 162.399 43.68 163.775 43.68H166.511V48H162.575ZM174.877 19.68C173.917 19.68 173.117 19.392 172.477 18.816C171.869 18.208 171.565 17.456 171.565 16.56C171.565 15.664 171.869 14.928 172.477 14.352C173.117 13.744 173.917 13.44 174.877 13.44C175.837 13.44 176.621 13.744 177.229 14.352C177.869 14.928 178.189 15.664 178.189 16.56C178.189 17.456 177.869 18.208 177.229 18.816C176.621 19.392 175.837 19.68 174.877 19.68ZM172.333 48V24.192H177.421V48H172.333ZM194.986 48.576C192.682 48.576 190.65 48.032 188.89 46.944C187.13 45.856 185.754 44.368 184.762 42.48C183.77 40.592 183.274 38.448 183.274 36.048C183.274 33.648 183.77 31.52 184.762 29.664C185.754 27.776 187.13 26.304 188.89 25.248C190.682 24.16 192.73 23.616 195.034 23.616C196.922 23.616 198.57 23.984 199.978 24.72C201.418 25.456 202.538 26.496 203.338 27.84V13.44H208.426V48H203.866L203.338 44.304C202.57 45.424 201.514 46.416 200.17 47.28C198.826 48.144 197.098 48.576 194.986 48.576ZM195.898 44.16C198.074 44.16 199.85 43.408 201.226 41.904C202.634 40.4 203.338 38.464 203.338 36.096C203.338 33.696 202.634 31.76 201.226 30.288C199.85 28.784 198.074 28.032 195.898 28.032C193.722 28.032 191.93 28.784 190.522 30.288C189.114 31.76 188.41 33.696 188.41 36.096C188.41 37.664 188.73 39.056 189.37 40.272C190.01 41.488 190.89 42.448 192.01 43.152C193.162 43.824 194.458 44.16 195.898 44.16ZM217.721 19.68C216.761 19.68 215.961 19.392 215.321 18.816C214.713 18.208 214.409 17.456 214.409 16.56C214.409 15.664 214.713 14.928 215.321 14.352C215.961 13.744 216.761 13.44 217.721 13.44C218.681 13.44 219.465 13.744 220.073 14.352C220.713 14.928 221.033 15.664 221.033 16.56C221.033 17.456 220.713 18.208 220.073 18.816C219.465 19.392 218.681 19.68 217.721 19.68ZM215.177 48V24.192H220.265V48H215.177ZM236.486 48.576C233.478 48.576 230.998 47.84 229.046 46.368C227.094 44.896 225.974 42.944 225.686 40.512H230.822C231.078 41.6 231.686 42.544 232.646 43.344C233.606 44.112 234.87 44.496 236.438 44.496C237.974 44.496 239.094 44.176 239.798 43.536C240.502 42.896 240.854 42.16 240.854 41.328C240.854 40.112 240.358 39.296 239.366 38.88C238.406 38.432 237.062 38.032 235.334 37.68C233.99 37.392 232.646 37.008 231.302 36.528C229.99 36.048 228.886 35.376 227.99 34.512C227.126 33.616 226.694 32.416 226.694 30.912C226.694 28.832 227.494 27.104 229.094 25.728C230.694 24.32 232.934 23.616 235.814 23.616C238.47 23.616 240.614 24.256 242.246 25.536C243.91 26.816 244.886 28.624 245.174 30.96H240.278C240.118 29.936 239.638 29.136 238.838 28.56C238.07 27.984 237.03 27.696 235.718 27.696C234.438 27.696 233.446 27.968 232.742 28.512C232.038 29.024 231.686 29.696 231.686 30.528C231.686 31.36 232.166 32.016 233.126 32.496C234.118 32.976 235.414 33.408 237.014 33.792C238.614 34.144 240.086 34.56 241.43 35.04C242.806 35.488 243.91 36.16 244.742 37.056C245.574 37.952 245.99 39.264 245.99 40.992C246.022 43.168 245.174 44.976 243.446 46.416C241.75 47.856 239.43 48.576 236.486 48.576ZM262.824 48.576C260.488 48.576 258.392 48.048 256.536 46.992C254.712 45.936 253.272 44.48 252.216 42.624C251.192 40.736 250.68 38.56 250.68 36.096C250.68 33.632 251.192 31.472 252.216 29.616C253.272 27.728 254.712 26.256 256.536 25.2C258.392 24.144 260.488 23.616 262.824 23.616C265.768 23.616 268.232 24.384 270.216 25.92C272.232 27.456 273.528 29.536 274.104 32.16H268.776C268.456 30.848 267.752 29.824 266.664 29.088C265.576 28.352 264.296 27.984 262.824 27.984C261.576 27.984 260.424 28.304 259.368 28.944C258.312 29.552 257.464 30.464 256.824 31.68C256.184 32.864 255.864 34.336 255.864 36.096C255.864 37.856 256.184 39.344 256.824 40.56C257.464 41.744 258.312 42.656 259.368 43.296C260.424 43.936 261.576 44.256 262.824 44.256C264.296 44.256 265.576 43.888 266.664 43.152C267.752 42.416 268.456 41.376 268.776 40.032H274.104C273.56 42.592 272.28 44.656 270.264 46.224C268.248 47.792 265.768 48.576 262.824 48.576ZM282.502 19.68C281.542 19.68 280.742 19.392 280.102 18.816C279.494 18.208 279.19 17.456 279.19 16.56C279.19 15.664 279.494 14.928 280.102 14.352C280.742 13.744 281.542 13.44 282.502 13.44C283.462 13.44 284.246 13.744 284.854 14.352C285.494 14.928 285.814 15.664 285.814 16.56C285.814 17.456 285.494 18.208 284.854 18.816C284.246 19.392 283.462 19.68 282.502 19.68ZM279.958 48V24.192H285.046V48H279.958ZM291.763 58.56V24.192H296.323L296.851 27.888C297.619 26.768 298.675 25.776 300.019 24.912C301.363 24.048 303.091 23.616 305.203 23.616C307.507 23.616 309.539 24.16 311.299 25.248C313.059 26.336 314.435 27.824 315.427 29.712C316.451 31.6 316.963 33.744 316.963 36.144C316.963 38.544 316.451 40.688 315.427 42.576C314.435 44.432 313.059 45.904 311.299 46.992C309.539 48.048 307.491 48.576 305.155 48.576C303.299 48.576 301.651 48.208 300.211 47.472C298.803 46.736 297.683 45.696 296.851 44.352V58.56H291.763ZM304.291 44.16C306.467 44.16 308.259 43.424 309.667 41.952C311.075 40.448 311.779 38.496 311.779 36.096C311.779 34.528 311.459 33.136 310.819 31.92C310.179 30.704 309.299 29.76 308.179 29.088C307.059 28.384 305.763 28.032 304.291 28.032C302.115 28.032 300.323 28.784 298.915 30.288C297.539 31.792 296.851 33.728 296.851 36.096C296.851 38.496 297.539 40.448 298.915 41.952C300.323 43.424 302.115 44.16 304.291 44.16ZM322.466 48V13.44H327.554V48H322.466ZM336.877 19.68C335.917 19.68 335.117 19.392 334.477 18.816C333.869 18.208 333.565 17.456 333.565 16.56C333.565 15.664 333.869 14.928 334.477 14.352C335.117 13.744 335.917 13.44 336.877 13.44C337.837 13.44 338.621 13.744 339.229 14.352C339.869 14.928 340.189 15.664 340.189 16.56C340.189 17.456 339.869 18.208 339.229 18.816C338.621 19.392 337.837 19.68 336.877 19.68ZM334.333 48V24.192H339.421V48H334.333ZM346.138 48V24.192H350.65L351.034 28.368C351.77 26.896 352.842 25.744 354.25 24.912C355.69 24.048 357.338 23.616 359.194 23.616C362.074 23.616 364.33 24.512 365.962 26.304C367.626 28.096 368.458 30.768 368.458 34.32V48H363.418V34.848C363.418 30.24 361.53 27.936 357.754 27.936C355.866 27.936 354.298 28.608 353.05 29.952C351.834 31.296 351.226 33.216 351.226 35.712V48H346.138ZM382.514 48.576C380.498 48.576 378.834 48.24 377.522 47.568C376.21 46.896 375.234 46.016 374.594 44.928C373.954 43.808 373.634 42.592 373.634 41.28C373.634 38.976 374.53 37.152 376.322 35.808C378.114 34.464 380.674 33.792 384.002 33.792H390.242V33.36C390.242 31.504 389.73 30.112 388.706 29.184C387.714 28.256 386.418 27.792 384.818 27.792C383.41 27.792 382.178 28.144 381.122 28.848C380.098 29.52 379.474 30.528 379.25 31.872H374.162C374.322 30.144 374.898 28.672 375.89 27.456C376.914 26.208 378.194 25.264 379.73 24.624C381.298 23.952 383.01 23.616 384.866 23.616C388.194 23.616 390.77 24.496 392.594 26.256C394.418 27.984 395.33 30.352 395.33 33.36V48H390.914L390.482 43.92C389.81 45.232 388.834 46.336 387.554 47.232C386.274 48.128 384.594 48.576 382.514 48.576ZM383.522 44.448C384.898 44.448 386.05 44.128 386.978 43.488C387.938 42.816 388.674 41.936 389.186 40.848C389.73 39.76 390.066 38.56 390.194 37.248H384.53C382.514 37.248 381.074 37.6 380.21 38.304C379.378 39.008 378.962 39.888 378.962 40.944C378.962 42.032 379.362 42.896 380.162 43.536C380.994 44.144 382.114 44.448 383.522 44.448ZM401.263 48V24.192H405.823L406.255 28.704C407.087 27.136 408.239 25.904 409.711 25.008C411.215 24.08 413.023 23.616 415.135 23.616V28.944H413.743C412.335 28.944 411.071 29.184 409.951 29.664C408.863 30.112 407.983 30.896 407.311 32.016C406.671 33.104 406.351 34.624 406.351 36.576V48H401.263Z" fill="#4D4D4D"/>
</svg>
